<?xml version="1.0" encoding="utf-8"?>
<!-- Generator: Adobe Illustrator 16.0.0, SVG Export Plug-In . SVG Version: 6.00 Build 0)  -->
<!DOCTYPE svg PUBLIC "-//W3C//DTD SVG 1.1//EN" "http://www.w3.org/Graphics/SVG/1.1/DTD/svg11.dtd">
<svg version="1.1" id="图层_1" xmlns="http://www.w3.org/2000/svg" xmlns:xlink="http://www.w3.org/1999/xlink" x="0px" y="0px"
	 width="283.46px" height="283.46px" viewBox="0 0 283.46 283.46" enable-background="new 0 0 283.46 283.46" xml:space="preserve">
<g>
	<g>
		<linearGradient id="SVGID_1_" gradientUnits="userSpaceOnUse" x1="160.7627" y1="134.603" x2="197.5928" y2="134.603">
			<stop  offset="0" style="stop-color:#000000"/>
			<stop  offset="1" style="stop-color:#404040"/>
		</linearGradient>
		<polygon fill="url(#SVGID_1_)" points="160.763,32.628 196.333,57 197.593,214.519 161.578,236.578 		"/>
		<linearGradient id="SVGID_2_" gradientUnits="userSpaceOnUse" x1="85.0791" y1="134.6685" x2="162.1152" y2="134.6685">
			<stop  offset="0" style="stop-color:#1A1A1A"/>
			<stop  offset="1" style="stop-color:#696969"/>
		</linearGradient>
		<path fill="url(#SVGID_2_)" d="M86.18,42.251c-0.291-5.998,4.347-5.87,4.347-5.87c2.766-0.73,64.625-3.483,70.311-3.735
			c0.136,0.065,0.277,0.123,0.423,0.176c0.09,7.949,0.855,203.627,0.855,203.627c-1.739,1.021-70.429-1.532-70.429-1.532
			c-6.086,0.003-6.086-5.866-6.086-5.866C84.152,227.007,86.18,42.251,86.18,42.251z"/>
		<rect x="97.42" y="57.689" width="5.937" height="2.011"/>
		
			<linearGradient id="SVGID_3_" gradientUnits="userSpaceOnUse" x1="179.5068" y1="58.8784" x2="180.3984" y2="58.8784" gradientTransform="matrix(-1 0 0 1 282.6719 0)">
			<stop  offset="0" style="stop-color:#ECE9E6"/>
			<stop  offset="0" style="stop-color:#E5E3DE"/>
			<stop  offset="0.0585" style="stop-color:#D8D4D0"/>
			<stop  offset="0.1703" style="stop-color:#B5AFAE"/>
			<stop  offset="0.264" style="stop-color:#938D90"/>
			<stop  offset="1" style="stop-color:#DBDCDB"/>
			<stop  offset="1" style="stop-color:#B0B0B0"/>
		</linearGradient>
		<polygon fill="url(#SVGID_3_)" points="102.365,59.924 103.165,59.389 103.156,57.833 102.273,58.099 		"/>
		<polygon fill="#94928E" points="101.977,58.439 103.156,57.833 97.604,57.833 97.539,58.344 		"/>
		<polygon points="150.204,46.917 89.879,48.641 89.879,56.876 149.82,54.769 		"/>
		
			<linearGradient id="SVGID_4_" gradientUnits="userSpaceOnUse" x1="133.1064" y1="51.9287" x2="192.0264" y2="51.9287" gradientTransform="matrix(-1 0 0 1 282.6719 0)">
			<stop  offset="0" style="stop-color:#141C1B"/>
			<stop  offset="0.5659" style="stop-color:#ABAAA5"/>
			<stop  offset="0.5889" style="stop-color:#979692"/>
			<stop  offset="0.6385" style="stop-color:#71726E"/>
			<stop  offset="0.6904" style="stop-color:#535653"/>
			<stop  offset="0.7439" style="stop-color:#3B413E"/>
			<stop  offset="0.7995" style="stop-color:#2A312F"/>
			<stop  offset="0.8581" style="stop-color:#1E2624"/>
			<stop  offset="0.9219" style="stop-color:#161F1D"/>
			<stop  offset="1" style="stop-color:#141C1B"/>
		</linearGradient>
		<polygon fill="url(#SVGID_4_)" points="149.565,47.556 90.773,48.96 90.646,56.301 149.312,54.322 		"/>
		<rect x="142.801" y="56.094" width="3.828" height="2.202"/>
		
			<radialGradient id="SVGID_5_" cx="137.7656" cy="18.5537" r="1.2157" gradientTransform="matrix(-1 0 0 1.25 282.6719 33.875)" gradientUnits="userSpaceOnUse">
			<stop  offset="0" style="stop-color:#00A73B"/>
			<stop  offset="0.9725" style="stop-color:#125021"/>
		</radialGradient>
		<rect x="143.246" y="56.509" fill="url(#SVGID_5_)" width="3.32" height="1.117"/>
		
			<linearGradient id="SVGID_6_" gradientUnits="userSpaceOnUse" x1="180.2305" y1="59.1484" x2="185.1436" y2="59.1484" gradientTransform="matrix(-1 0 0 1 282.6719 0)">
			<stop  offset="0" style="stop-color:#2B3937"/>
			<stop  offset="0.5659" style="stop-color:#5D5C59"/>
			<stop  offset="0.6162" style="stop-color:#515250"/>
			<stop  offset="0.6991" style="stop-color:#414644"/>
			<stop  offset="0.787" style="stop-color:#363D3B"/>
			<stop  offset="0.8827" style="stop-color:#303836"/>
			<stop  offset="1" style="stop-color:#2D3634"/>
		</linearGradient>
		<polygon fill="url(#SVGID_6_)" points="102.335,58.312 102.441,59.927 97.528,60.015 97.56,58.282 		"/>
		
			<linearGradient id="SVGID_7_" gradientUnits="userSpaceOnUse" x1="182.3086" y1="97.248" x2="166.9878" y2="92.6518" gradientTransform="matrix(1 0 0 1 -71.123 0)">
			<stop  offset="0" style="stop-color:#141C1B"/>
			<stop  offset="0.4176" style="stop-color:#ABAAA5"/>
			<stop  offset="0.4466" style="stop-color:#979692"/>
			<stop  offset="0.5095" style="stop-color:#71726E"/>
			<stop  offset="0.5751" style="stop-color:#535653"/>
			<stop  offset="0.6428" style="stop-color:#3B413E"/>
			<stop  offset="0.7132" style="stop-color:#2A312F"/>
			<stop  offset="0.7875" style="stop-color:#1E2624"/>
			<stop  offset="0.8681" style="stop-color:#161F1D"/>
			<stop  offset="0.967" style="stop-color:#141C1B"/>
		</linearGradient>
		<ellipse fill="url(#SVGID_7_)" cx="105.774" cy="95.625" rx="6.319" ry="6.511"/>
		
			<linearGradient id="SVGID_8_" gradientUnits="userSpaceOnUse" x1="171.4717" y1="95.3047" x2="182.5791" y2="95.3047" gradientTransform="matrix(-1 0 0 1 282.6719 0)">
			<stop  offset="0.0112" style="stop-color:#D4C5B1"/>
			<stop  offset="0.1011" style="stop-color:#D3D6D0"/>
			<stop  offset="0.2" style="stop-color:#B8AB98"/>
			<stop  offset="0.2921" style="stop-color:#D3D6D0"/>
			<stop  offset="0.4" style="stop-color:#FFFFFF"/>
			<stop  offset="0.6" style="stop-color:#D3D6D0"/>
			<stop  offset="0.8" style="stop-color:#B8AB98"/>
			<stop  offset="0.8876" style="stop-color:#D3D6D0"/>
			<stop  offset="1" style="stop-color:#D4C5B1"/>
		</linearGradient>
		<circle fill="url(#SVGID_8_)" cx="105.646" cy="95.305" r="5.554"/>
		
			<linearGradient id="SVGID_9_" gradientUnits="userSpaceOnUse" x1="180.6035" y1="171.6035" x2="173.5168" y2="176.2003" gradientTransform="matrix(-1 0 0 1 282.6719 0)">
			<stop  offset="0" style="stop-color:#141C1B"/>
			<stop  offset="0.4176" style="stop-color:#ABAAA5"/>
			<stop  offset="0.4466" style="stop-color:#979692"/>
			<stop  offset="0.5095" style="stop-color:#71726E"/>
			<stop  offset="0.5751" style="stop-color:#535653"/>
			<stop  offset="0.6428" style="stop-color:#3B413E"/>
			<stop  offset="0.7132" style="stop-color:#2A312F"/>
			<stop  offset="0.7875" style="stop-color:#1E2624"/>
			<stop  offset="0.8681" style="stop-color:#161F1D"/>
			<stop  offset="0.967" style="stop-color:#141C1B"/>
		</linearGradient>
		<ellipse fill="url(#SVGID_9_)" cx="105.391" cy="173.759" rx="4.089" ry="4.215"/>
		
			<linearGradient id="SVGID_10_" gradientUnits="userSpaceOnUse" x1="173.7705" y1="173.5527" x2="180.957" y2="173.5527" gradientTransform="matrix(-1 0 0 1 282.6719 0)">
			<stop  offset="0.0112" style="stop-color:#D4C5B1"/>
			<stop  offset="0.1011" style="stop-color:#D3D6D0"/>
			<stop  offset="0.2" style="stop-color:#B8AB98"/>
			<stop  offset="0.2921" style="stop-color:#D3D6D0"/>
			<stop  offset="0.4" style="stop-color:#FFFFFF"/>
			<stop  offset="0.6" style="stop-color:#D3D6D0"/>
			<stop  offset="0.8" style="stop-color:#B8AB98"/>
			<stop  offset="0.8876" style="stop-color:#D3D6D0"/>
			<stop  offset="1" style="stop-color:#D4C5B1"/>
		</linearGradient>
		<circle fill="url(#SVGID_10_)" cx="105.308" cy="173.553" r="3.593"/>
		
			<linearGradient id="SVGID_11_" gradientUnits="userSpaceOnUse" x1="186.376" y1="106.5083" x2="183.1847" y2="109.6998" gradientTransform="matrix(-1 0 0 1 282.6719 0)">
			<stop  offset="0" style="stop-color:#141C1B"/>
			<stop  offset="0.4176" style="stop-color:#ABAAA5"/>
			<stop  offset="0.4466" style="stop-color:#979692"/>
			<stop  offset="0.5095" style="stop-color:#71726E"/>
			<stop  offset="0.5751" style="stop-color:#535653"/>
			<stop  offset="0.6428" style="stop-color:#3B413E"/>
			<stop  offset="0.7132" style="stop-color:#2A312F"/>
			<stop  offset="0.7875" style="stop-color:#1E2624"/>
			<stop  offset="0.8681" style="stop-color:#161F1D"/>
			<stop  offset="0.967" style="stop-color:#141C1B"/>
		</linearGradient>
		<circle fill="url(#SVGID_11_)" cx="97.986" cy="108.2" r="2.426"/>
		
			<radialGradient id="SVGID_12_" cx="184.3662" cy="107.8164" r="1.915" gradientTransform="matrix(-1 0 0 1 282.6719 0)" gradientUnits="userSpaceOnUse">
			<stop  offset="0.1813" style="stop-color:#FFFFFF"/>
			<stop  offset="0.3273" style="stop-color:#E8E6E6"/>
			<stop  offset="0.6318" style="stop-color:#BDB8B8"/>
			<stop  offset="0.866" style="stop-color:#A39B9B"/>
			<stop  offset="1" style="stop-color:#999090"/>
		</radialGradient>
		<circle fill="url(#SVGID_12_)" cx="98.306" cy="107.817" r="1.915"/>
		<path d="M123.904,106.282c0,0.918,0.896,1.662,2.003,1.662h2.505c1.106,0,2.003-0.744,2.003-1.662V98.18
			c0-0.917-0.896-1.661-2.003-1.661h-2.505c-1.106,0-2.003,0.744-2.003,1.661V106.282z"/>
		
			<linearGradient id="SVGID_13_" gradientUnits="userSpaceOnUse" x1="153.1504" y1="102.5508" x2="158.1299" y2="102.5508" gradientTransform="matrix(-1 0 0 1 282.6719 0)">
			<stop  offset="0" style="stop-color:#141C1B"/>
			<stop  offset="0.4176" style="stop-color:#ABAAA5"/>
			<stop  offset="0.4466" style="stop-color:#979692"/>
			<stop  offset="0.5095" style="stop-color:#71726E"/>
			<stop  offset="0.5751" style="stop-color:#535653"/>
			<stop  offset="0.6428" style="stop-color:#3B413E"/>
			<stop  offset="0.7132" style="stop-color:#2A312F"/>
			<stop  offset="0.7875" style="stop-color:#1E2624"/>
			<stop  offset="0.8681" style="stop-color:#161F1D"/>
			<stop  offset="0.967" style="stop-color:#141C1B"/>
		</linearGradient>
		<path fill="url(#SVGID_13_)" d="M124.542,106.284c0,0.846,0.687,1.533,1.532,1.533h1.915c0.847,0,1.532-0.688,1.532-1.533v-7.469
			c0-0.846-0.686-1.531-1.532-1.531h-1.915c-0.846,0-1.532,0.686-1.532,1.531V106.284z"/>
		
			<linearGradient id="SVGID_14_" gradientUnits="userSpaceOnUse" x1="160.3047" y1="100.2681" x2="152.8048" y2="105.1329" gradientTransform="matrix(-1 0 0 1 282.6719 0)">
			<stop  offset="0" style="stop-color:#141C1B"/>
			<stop  offset="0.4176" style="stop-color:#ABAAA5"/>
			<stop  offset="0.4466" style="stop-color:#979692"/>
			<stop  offset="0.5095" style="stop-color:#71726E"/>
			<stop  offset="0.5751" style="stop-color:#535653"/>
			<stop  offset="0.6428" style="stop-color:#3B413E"/>
			<stop  offset="0.7132" style="stop-color:#2A312F"/>
			<stop  offset="0.7875" style="stop-color:#1E2624"/>
			<stop  offset="0.8681" style="stop-color:#161F1D"/>
			<stop  offset="0.967" style="stop-color:#141C1B"/>
		</linearGradient>
		<path fill="url(#SVGID_14_)" d="M123.393,106.284c0,0.846,0.687,1.533,1.533,1.533h1.914c0.847,0,1.533-0.688,1.533-1.533v-7.469
			c0-0.846-0.687-1.531-1.533-1.531h-1.914c-0.847,0-1.533,0.686-1.533,1.531V106.284z"/>
		<path d="M134.309,176.313c0,0.846,0.686,1.532,1.533,1.532h13.022c0.846,0,1.531-0.687,1.531-1.532V88.985
			c0-0.845-0.686-1.532-1.531-1.532h-13.022c-0.848,0-1.533,0.687-1.533,1.532V176.313z"/>
		
			<linearGradient id="SVGID_15_" gradientUnits="userSpaceOnUse" x1="133.042" y1="132.6494" x2="147.5957" y2="132.6494" gradientTransform="matrix(-1 0 0 1 282.6719 0)">
			<stop  offset="0" style="stop-color:#1A2A2A"/>
			<stop  offset="0.5" style="stop-color:#807F7C"/>
			<stop  offset="0.5304" style="stop-color:#71726F"/>
			<stop  offset="0.5923" style="stop-color:#565B58"/>
			<stop  offset="0.657" style="stop-color:#404947"/>
			<stop  offset="0.7243" style="stop-color:#303B39"/>
			<stop  offset="0.7953" style="stop-color:#243130"/>
			<stop  offset="0.8724" style="stop-color:#1C2C2A"/>
			<stop  offset="0.967" style="stop-color:#1A2A28"/>
		</linearGradient>
		<path fill="url(#SVGID_15_)" d="M135.076,175.67c0,0.833,0.619,1.51,1.386,1.51h11.782c0.765,0,1.386-0.677,1.386-1.51V89.629
			c0-0.834-0.621-1.51-1.386-1.51h-11.782c-0.767,0-1.386,0.675-1.386,1.51V175.67z"/>
		<g>
			
				<radialGradient id="SVGID_16_" cx="2920.6719" cy="142.6211" r="1.9268" gradientTransform="matrix(-1 0 0 1 3025.4375 0)" gradientUnits="userSpaceOnUse">
				<stop  offset="0.6923" style="stop-color:#26AC38"/>
				<stop  offset="0.7227" style="stop-color:#28A839"/>
				<stop  offset="0.769" style="stop-color:#2D993A"/>
				<stop  offset="0.8255" style="stop-color:#308139"/>
				<stop  offset="0.8901" style="stop-color:#2C5F31"/>
				<stop  offset="0.9605" style="stop-color:#1D331F"/>
				<stop  offset="1" style="stop-color:#10170D"/>
			</radialGradient>
			<circle fill="url(#SVGID_16_)" cx="104.766" cy="142.621" r="1.927"/>
			
				<radialGradient id="SVGID_17_" cx="177.2871" cy="142.6025" r="1.6758" gradientTransform="matrix(1 0 0 1 -72.5039 0)" gradientUnits="userSpaceOnUse">
				<stop  offset="0" style="stop-color:#26AC38"/>
				<stop  offset="0.1369" style="stop-color:#24A737"/>
				<stop  offset="0.3458" style="stop-color:#239635"/>
				<stop  offset="0.6006" style="stop-color:#207B2E"/>
				<stop  offset="0.8892" style="stop-color:#195722"/>
				<stop  offset="1" style="stop-color:#15471C"/>
			</radialGradient>
			<circle fill="url(#SVGID_17_)" cx="104.784" cy="142.603" r="1.675"/>
			<g>
				
					<radialGradient id="SVGID_18_" cx="2920.8848" cy="142.5415" r="1.4344" gradientTransform="matrix(-1 0 0 1 3025.4375 0)" gradientUnits="userSpaceOnUse">
					<stop  offset="0.1813" style="stop-color:#FFFFFF"/>
					<stop  offset="0.8297" style="stop-color:#FFFFFF"/>
					<stop  offset="0.86" style="stop-color:#E8E6E6"/>
					<stop  offset="0.9234" style="stop-color:#BDB8B8"/>
					<stop  offset="0.9721" style="stop-color:#A39B9B"/>
					<stop  offset="1" style="stop-color:#999090"/>
				</radialGradient>
				<ellipse fill="url(#SVGID_18_)" cx="104.552" cy="142.542" rx="1.393" ry="1.474"/>
				
					<radialGradient id="SVGID_19_" cx="2920.916" cy="142.5762" r="1.1866" gradientTransform="matrix(-1 0 0 1 3025.4375 0)" gradientUnits="userSpaceOnUse">
					<stop  offset="0" style="stop-color:#26AC38"/>
					<stop  offset="0.0574" style="stop-color:#239E36"/>
					<stop  offset="0.176" style="stop-color:#218330"/>
					<stop  offset="0.3027" style="stop-color:#1E6D2A"/>
					<stop  offset="0.4381" style="stop-color:#1A5C24"/>
					<stop  offset="0.5862" style="stop-color:#185120"/>
					<stop  offset="0.7566" style="stop-color:#164A1D"/>
					<stop  offset="1" style="stop-color:#15471C"/>
				</radialGradient>
				<ellipse fill="url(#SVGID_19_)" cx="104.521" cy="142.575" rx="1.176" ry="1.197"/>
			</g>
		</g>
		<g>
			
				<radialGradient id="SVGID_20_" cx="2920.8633" cy="151.6846" r="1.9272" gradientTransform="matrix(-1 0 0 1 3025.4375 0)" gradientUnits="userSpaceOnUse">
				<stop  offset="0.8077" style="stop-color:#E60A11"/>
				<stop  offset="1" style="stop-color:#570C0D"/>
			</radialGradient>
			<circle fill="url(#SVGID_20_)" cx="104.574" cy="151.686" r="1.927"/>
			
				<linearGradient id="SVGID_21_" gradientUnits="userSpaceOnUse" x1="175.4209" y1="151.666" x2="178.7725" y2="151.666" gradientTransform="matrix(1 0 0 1 -72.5039 0)">
				<stop  offset="0" style="stop-color:#E60A11"/>
				<stop  offset="1" style="stop-color:#B61119"/>
			</linearGradient>
			<circle fill="url(#SVGID_21_)" cx="104.593" cy="151.667" r="1.676"/>
			<g>
				
					<radialGradient id="SVGID_22_" cx="2921.0781" cy="151.6055" r="1.4342" gradientTransform="matrix(-1 0 0 1 3025.4375 0)" gradientUnits="userSpaceOnUse">
					<stop  offset="0.1813" style="stop-color:#FFFFFF"/>
					<stop  offset="0.8297" style="stop-color:#FFFFFF"/>
					<stop  offset="0.86" style="stop-color:#E8E6E6"/>
					<stop  offset="0.9234" style="stop-color:#BDB8B8"/>
					<stop  offset="0.9721" style="stop-color:#A39B9B"/>
					<stop  offset="1" style="stop-color:#999090"/>
				</radialGradient>
				<ellipse fill="url(#SVGID_22_)" cx="104.36" cy="151.607" rx="1.393" ry="1.473"/>
				
					<radialGradient id="SVGID_23_" cx="2921.1074" cy="151.6406" r="1.1866" gradientTransform="matrix(-1 0 0 1 3025.4375 0)" gradientUnits="userSpaceOnUse">
					<stop  offset="0" style="stop-color:#E60A11"/>
					<stop  offset="1" style="stop-color:#570C0D"/>
				</radialGradient>
				<ellipse fill="url(#SVGID_23_)" cx="104.33" cy="151.64" rx="1.176" ry="1.197"/>
			</g>
		</g>
		<g>
			
				<linearGradient id="SVGID_24_" gradientUnits="userSpaceOnUse" x1="175.5566" y1="121.7017" x2="180.1523" y2="121.7017" gradientTransform="matrix(1 0 0 1 -73.0371 0)">
				<stop  offset="0.0112" style="stop-color:#D4C5B1"/>
				<stop  offset="0.1011" style="stop-color:#D3D6D0"/>
				<stop  offset="0.2" style="stop-color:#B8AB98"/>
				<stop  offset="0.2921" style="stop-color:#D3D6D0"/>
				<stop  offset="0.4" style="stop-color:#FFFFFF"/>
				<stop  offset="0.6" style="stop-color:#D3D6D0"/>
				<stop  offset="0.8" style="stop-color:#B8AB98"/>
				<stop  offset="0.8876" style="stop-color:#D3D6D0"/>
				<stop  offset="1" style="stop-color:#D4C5B1"/>
			</linearGradient>
			<path fill="url(#SVGID_24_)" d="M107.115,124.382c0,0.847-0.686,1.533-1.531,1.533h-1.532c-0.846,0-1.532-0.687-1.532-1.533
				v-5.361c0-0.846,0.687-1.532,1.532-1.532h1.532c0.846,0,1.531,0.687,1.531,1.532V124.382z"/>
			<path d="M106.733,124.118c0,0.763-0.572,1.381-1.277,1.381h-1.276c-0.705,0-1.276-0.618-1.276-1.381v-4.834
				c0-0.763,0.571-1.381,1.276-1.381h1.276c0.705,0,1.277,0.618,1.277,1.381V124.118z"/>
			<path fill="#424242" d="M104.243,124.31v-4.834c0-0.762,0.572-1.381,1.276-1.381h0.575c-0.188-0.119-0.405-0.191-0.639-0.191
				h-1.276c-0.705,0-1.276,0.618-1.276,1.381v4.834c0,0.763,0.571,1.381,1.276,1.381h0.702
				C104.502,125.261,104.243,124.82,104.243,124.31z"/>
		</g>
		<g>
			
				<linearGradient id="SVGID_25_" gradientUnits="userSpaceOnUse" x1="175.4287" y1="132.5532" x2="180.0254" y2="132.5532" gradientTransform="matrix(1 0 0 1 -72.5039 0)">
				<stop  offset="0.0112" style="stop-color:#D4C5B1"/>
				<stop  offset="0.1011" style="stop-color:#D3D6D0"/>
				<stop  offset="0.2" style="stop-color:#B8AB98"/>
				<stop  offset="0.2921" style="stop-color:#D3D6D0"/>
				<stop  offset="0.4" style="stop-color:#FFFFFF"/>
				<stop  offset="0.6" style="stop-color:#D3D6D0"/>
				<stop  offset="0.8" style="stop-color:#B8AB98"/>
				<stop  offset="0.8876" style="stop-color:#D3D6D0"/>
				<stop  offset="1" style="stop-color:#D4C5B1"/>
			</linearGradient>
			<path fill="url(#SVGID_25_)" d="M107.521,135.235c0,0.846-0.687,1.531-1.532,1.531h-1.532c-0.847,0-1.532-0.686-1.532-1.531
				v-5.363c0-0.846,0.686-1.532,1.532-1.532h1.532c0.846,0,1.532,0.687,1.532,1.532V135.235z"/>
			<path d="M107.139,134.97c0,0.764-0.572,1.381-1.276,1.381h-1.277c-0.705,0-1.276-0.617-1.276-1.381v-4.834
				c0-0.763,0.571-1.381,1.276-1.381h1.277c0.704,0,1.276,0.618,1.276,1.381V134.97z"/>
			<path fill="#424242" d="M104.649,135.162v-4.835c0-0.762,0.571-1.381,1.275-1.381h0.575c-0.188-0.118-0.405-0.191-0.638-0.191
				h-1.277c-0.705,0-1.276,0.618-1.276,1.381v4.834c0,0.764,0.571,1.381,1.276,1.381h0.703
				C104.907,136.112,104.649,135.673,104.649,135.162z"/>
		</g>
		<g>
			<path fill="#141C1B" d="M94.783,204.568c-0.003,0.971,0.755,1.76,1.693,1.763l46.546,0.17c0.938,0.002,1.701-0.782,1.706-1.752
				l0.008-2.197c0.002-0.973-0.758-1.764-1.694-1.767l-46.546-0.166c-0.94-0.004-1.703,0.78-1.708,1.752L94.783,204.568z"/>
			
				<rect x="94.786" y="203.01" transform="matrix(-1 -0.0036 0.0036 -1 238.7318 407.104)" fill="#424242" width="49.884" height="0.659"/>
			
				<rect x="116.974" y="203.203" transform="matrix(-0.0036 1 -1 -0.0036 323.7506 84.4683)" fill="#424242" width="5.641" height="0.638"/>
			
				<linearGradient id="SVGID_26_" gradientUnits="userSpaceOnUse" x1="166.4473" y1="170.8486" x2="166.4473" y2="169.0882" gradientTransform="matrix(-1 -0.0035 -0.0035 1 286.7876 36.043)">
				<stop  offset="0" style="stop-color:#ABAAA5"/>
				<stop  offset="0.0528" style="stop-color:#979692"/>
				<stop  offset="0.1672" style="stop-color:#71726E"/>
				<stop  offset="0.2867" style="stop-color:#535653"/>
				<stop  offset="0.4099" style="stop-color:#3B413E"/>
				<stop  offset="0.538" style="stop-color:#2A312F"/>
				<stop  offset="0.6732" style="stop-color:#1E2624"/>
				<stop  offset="0.82" style="stop-color:#161F1D"/>
				<stop  offset="1" style="stop-color:#141C1B"/>
			</linearGradient>
			<path fill="url(#SVGID_26_)" d="M95.232,201.202c-0.003,0.048-0.015,0.094-0.015,0.145l-0.008,2.197
				c-0.002,0.971,0.756,1.761,1.696,1.766l46.544,0.168c0.503,0.001,0.951-0.228,1.265-0.584c-0.076,0.902-0.8,1.61-1.692,1.607
				l-46.546-0.17c-0.938-0.003-1.697-0.792-1.693-1.763l0.006-2.197C94.791,201.918,94.96,201.513,95.232,201.202z"/>
		</g>
		<g>
			<path fill="#141C1B" d="M94.593,194.225c-0.003,0.971,0.756,1.761,1.693,1.764l46.546,0.169c0.939,0.001,1.702-0.783,1.707-1.752
				l0.008-2.198c0.002-0.973-0.758-1.762-1.694-1.765l-46.546-0.166c-0.94-0.006-1.704,0.779-1.708,1.75L94.593,194.225z"/>
			
				<rect x="94.597" y="192.666" transform="matrix(-1 -0.0036 0.0036 -1 238.3912 386.4159)" fill="#424242" width="49.885" height="0.659"/>
			
				<rect x="116.786" y="192.859" transform="matrix(-0.0035 1 -1 -0.0035 313.1967 74.2414)" fill="#424242" width="5.641" height="0.638"/>
			
				<linearGradient id="SVGID_27_" gradientUnits="userSpaceOnUse" x1="166.6719" y1="160.5049" x2="166.6719" y2="158.7448" gradientTransform="matrix(-1 -0.0035 -0.0035 1 286.7876 36.043)">
				<stop  offset="0" style="stop-color:#ABAAA5"/>
				<stop  offset="0.0528" style="stop-color:#979692"/>
				<stop  offset="0.1672" style="stop-color:#71726E"/>
				<stop  offset="0.2867" style="stop-color:#535653"/>
				<stop  offset="0.4099" style="stop-color:#3B413E"/>
				<stop  offset="0.538" style="stop-color:#2A312F"/>
				<stop  offset="0.6732" style="stop-color:#1E2624"/>
				<stop  offset="0.82" style="stop-color:#161F1D"/>
				<stop  offset="1" style="stop-color:#141C1B"/>
			</linearGradient>
			<path fill="url(#SVGID_27_)" d="M95.043,190.858c-0.003,0.048-0.014,0.094-0.014,0.145l-0.009,2.197
				c-0.001,0.972,0.756,1.761,1.696,1.767l46.544,0.166c0.504,0.002,0.951-0.227,1.265-0.583c-0.075,0.901-0.8,1.611-1.692,1.607
				l-46.546-0.169c-0.938-0.003-1.697-0.793-1.693-1.764l0.007-2.198C94.602,191.574,94.772,191.168,95.043,190.858z"/>
		</g>
		<g>
			<path fill="#141C1B" d="M94.593,214.912c-0.003,0.971,0.756,1.761,1.693,1.764l46.546,0.169c0.939,0.001,1.702-0.783,1.707-1.752
				l0.008-2.198c0.002-0.973-0.758-1.762-1.694-1.765l-46.546-0.166c-0.94-0.006-1.704,0.779-1.708,1.75L94.593,214.912z"/>
			
				<rect x="94.597" y="213.354" transform="matrix(-1 -0.0036 0.0036 -1 238.3175 427.7908)" fill="#424242" width="49.885" height="0.659"/>
			
				<rect x="116.786" y="213.546" transform="matrix(-0.0035 1 -1 -0.0035 333.884 95.0005)" fill="#424242" width="5.641" height="0.638"/>
			
				<linearGradient id="SVGID_28_" gradientUnits="userSpaceOnUse" x1="166.5996" y1="181.1924" x2="166.5996" y2="179.4323" gradientTransform="matrix(-1 -0.0035 -0.0035 1 286.7876 36.043)">
				<stop  offset="0" style="stop-color:#ABAAA5"/>
				<stop  offset="0.0528" style="stop-color:#979692"/>
				<stop  offset="0.1672" style="stop-color:#71726E"/>
				<stop  offset="0.2867" style="stop-color:#535653"/>
				<stop  offset="0.4099" style="stop-color:#3B413E"/>
				<stop  offset="0.538" style="stop-color:#2A312F"/>
				<stop  offset="0.6732" style="stop-color:#1E2624"/>
				<stop  offset="0.82" style="stop-color:#161F1D"/>
				<stop  offset="1" style="stop-color:#141C1B"/>
			</linearGradient>
			<path fill="url(#SVGID_28_)" d="M95.043,211.546c-0.003,0.048-0.014,0.094-0.014,0.145l-0.009,2.197
				c-0.001,0.972,0.756,1.761,1.696,1.767l46.544,0.166c0.504,0.002,0.951-0.227,1.265-0.583c-0.075,0.901-0.8,1.611-1.692,1.607
				l-46.546-0.169c-0.938-0.003-1.697-0.793-1.693-1.764l0.007-2.198C94.602,212.262,94.772,211.855,95.043,211.546z"/>
		</g>
	</g>
</g>
</svg>
