<?xml version="1.0" encoding="utf-8"?>
<!-- Generator: Adobe Illustrator 16.0.0, SVG Export Plug-In . SVG Version: 6.00 Build 0)  -->
<!DOCTYPE svg PUBLIC "-//W3C//DTD SVG 1.1//EN" "http://www.w3.org/Graphics/SVG/1.1/DTD/svg11.dtd">
<svg version="1.1" id="图层_1" xmlns="http://www.w3.org/2000/svg" xmlns:xlink="http://www.w3.org/1999/xlink" x="0px" y="0px"
	 width="283.46px" height="283.46px" viewBox="0 0 283.46 283.46" enable-background="new 0 0 283.46 283.46" xml:space="preserve">
<g>
	<linearGradient id="SVGID_1_" gradientUnits="userSpaceOnUse" x1="141.5747" y1="181.376" x2="141.5747" y2="133.6064">
		<stop  offset="0" style="stop-color:#000000"/>
		<stop  offset="1" style="stop-color:#4D4D4D"/>
	</linearGradient>
	<rect x="24.649" y="133.606" fill="url(#SVGID_1_)" width="233.851" height="47.77"/>
	<linearGradient id="SVGID_2_" gradientUnits="userSpaceOnUse" x1="141.5679" y1="133.606" x2="141.5679" y2="113.21">
		<stop  offset="0" style="stop-color:#000000"/>
		<stop  offset="1" style="stop-color:#4D4D4D"/>
	</linearGradient>
	<path fill="url(#SVGID_2_)" d="M24.649,133.606h233.836c-0.004-0.019-0.009-0.037-0.013-0.057
		c-0.176-0.113-0.344-0.235-0.496-0.369l-32.374-19.97H56.719l-31.585,19.943C24.987,133.317,24.823,133.464,24.649,133.606z"/>
	<g>
		<rect x="35" y="152.124" fill="#595757" width="176.25" height="16.907"/>
		<linearGradient id="SVGID_3_" gradientUnits="userSpaceOnUse" x1="123.3286" y1="171.2637" x2="122.5916" y2="150.1584">
			<stop  offset="0" style="stop-color:#FFFFFF"/>
			<stop  offset="1" style="stop-color:#808080"/>
		</linearGradient>
		<rect x="35.587" y="153.197" fill="url(#SVGID_3_)" width="174.746" height="15.028"/>
	</g>
	<g>
		<g>
			<linearGradient id="SVGID_4_" gradientUnits="userSpaceOnUse" x1="78.2686" y1="168.2588" x2="77.7316" y2="152.8834">
				<stop  offset="0" style="stop-color:#A6A6A6"/>
				<stop  offset="1" style="stop-color:#454545"/>
			</linearGradient>
			<rect x="38" y="154.271" fill="url(#SVGID_4_)" width="80" height="12.601"/>
			<linearGradient id="SVGID_5_" gradientUnits="userSpaceOnUse" x1="78.1685" y1="167.6475" x2="77.6812" y2="153.695">
				<stop  offset="0" style="stop-color:#A6A6A6"/>
				<stop  offset="1" style="stop-color:#454545"/>
			</linearGradient>
			<rect x="38.266" y="155.071" fill="url(#SVGID_5_)" width="79.318" height="11.2"/>
		</g>
		<g>
			<rect x="45.875" y="156.328" fill="#231815" width="4.167" height="3.578"/>
			<rect x="43.042" y="158.564" fill="#231815" width="9.833" height="5.367"/>
		</g>
		<g>
			<rect x="61.104" y="156.328" fill="#231815" width="4.167" height="3.578"/>
			<rect x="58.271" y="158.564" fill="#231815" width="9.834" height="5.367"/>
		</g>
		<g>
			<rect x="76.333" y="156.328" fill="#231815" width="4.167" height="3.578"/>
			<rect x="73.5" y="158.564" fill="#231815" width="9.833" height="5.367"/>
		</g>
		<g>
			<rect x="91.562" y="156.328" fill="#231815" width="4.167" height="3.578"/>
			<rect x="88.729" y="158.564" fill="#231815" width="9.833" height="5.367"/>
		</g>
		<g>
			<rect x="106.792" y="156.328" fill="#231815" width="4.167" height="3.578"/>
			<rect x="103.958" y="158.564" fill="#231815" width="9.833" height="5.367"/>
		</g>
	</g>
	<g>
		<g>
			<linearGradient id="SVGID_6_" gradientUnits="userSpaceOnUse" x1="167.7686" y1="168.2588" x2="167.2316" y2="152.8834">
				<stop  offset="0" style="stop-color:#A6A6A6"/>
				<stop  offset="1" style="stop-color:#454545"/>
			</linearGradient>
			<rect x="127.5" y="154.271" fill="url(#SVGID_6_)" width="80" height="12.601"/>
			<linearGradient id="SVGID_7_" gradientUnits="userSpaceOnUse" x1="167.6689" y1="167.6484" x2="167.1817" y2="153.695">
				<stop  offset="0" style="stop-color:#A6A6A6"/>
				<stop  offset="1" style="stop-color:#454545"/>
			</linearGradient>
			<rect x="127.766" y="155.071" fill="url(#SVGID_7_)" width="79.318" height="11.2"/>
		</g>
		<g>
			<linearGradient id="SVGID_8_" gradientUnits="userSpaceOnUse" x1="238.8818" y1="169.958" x2="238.2825" y2="152.7956">
				<stop  offset="0" style="stop-color:#A6A6A6"/>
				<stop  offset="1" style="stop-color:#454545"/>
			</linearGradient>
			<rect x="226.75" y="153.197" fill="url(#SVGID_8_)" width="23.665" height="16.357"/>
			<linearGradient id="SVGID_9_" gradientUnits="userSpaceOnUse" x1="238.8271" y1="169.1777" x2="238.2915" y2="153.8375">
				<stop  offset="0" style="stop-color:#A6A6A6"/>
				<stop  offset="1" style="stop-color:#454545"/>
			</linearGradient>
			<rect x="226.828" y="154.237" fill="url(#SVGID_9_)" width="23.464" height="14.539"/>
		</g>
		<g>
			<rect x="135.375" y="156.328" fill="#231815" width="4.167" height="3.578"/>
			<rect x="132.542" y="158.564" fill="#231815" width="9.833" height="5.367"/>
		</g>
		<g>
			<rect x="150.604" y="156.328" fill="#231815" width="4.167" height="3.578"/>
			<rect x="147.771" y="158.564" fill="#231815" width="9.834" height="5.367"/>
		</g>
		<g>
			<rect x="165.834" y="156.328" fill="#231815" width="4.166" height="3.578"/>
			<rect x="163" y="158.564" fill="#231815" width="9.834" height="5.367"/>
		</g>
		<g>
			<rect x="181.062" y="156.328" fill="#231815" width="4.167" height="3.578"/>
			<rect x="178.229" y="158.564" fill="#231815" width="9.833" height="5.367"/>
		</g>
		<g>
			<rect x="196.292" y="156.328" fill="#231815" width="4.167" height="3.578"/>
			<rect x="193.459" y="158.564" fill="#231815" width="9.833" height="5.367"/>
		</g>
		<g>
			<rect x="235.792" y="155.792" fill="#231815" width="5.638" height="4.841"/>
			<rect x="231.959" y="158.817" fill="#231815" width="13.304" height="7.262"/>
		</g>
	</g>
	<g>
		<ellipse fill="#FAEE00" cx="48" cy="142.865" rx="1.812" ry="1.945"/>
		<ellipse fill="#C9CACA" cx="48" cy="147.695" rx="0.75" ry="0.806"/>
		<ellipse fill="#FAEE00" cx="63.25" cy="142.865" rx="1.812" ry="1.945"/>
		<ellipse fill="#C9CACA" cx="63.25" cy="147.695" rx="0.75" ry="0.806"/>
		<ellipse fill="#FAEE00" cx="78.5" cy="142.865" rx="1.812" ry="1.945"/>
		<ellipse fill="#C9CACA" cx="78.5" cy="147.695" rx="0.75" ry="0.806"/>
		<ellipse fill="#FAEE00" cx="93.5" cy="142.865" rx="1.812" ry="1.945"/>
		<ellipse fill="#C9CACA" cx="93.5" cy="147.695" rx="0.75" ry="0.806"/>
		<ellipse fill="#FAEE00" cx="108.625" cy="142.865" rx="1.812" ry="1.945"/>
		<ellipse fill="#C9CACA" cx="108.625" cy="147.695" rx="0.75" ry="0.806"/>
	</g>
	<g>
		<ellipse fill="#FAEE00" cx="137.375" cy="142.865" rx="1.812" ry="1.945"/>
		<ellipse fill="#C9CACA" cx="137.375" cy="147.695" rx="0.75" ry="0.806"/>
		<ellipse fill="#FAEE00" cx="152.625" cy="142.865" rx="1.812" ry="1.945"/>
		<ellipse fill="#C9CACA" cx="152.625" cy="147.695" rx="0.75" ry="0.806"/>
		<ellipse fill="#FAEE00" cx="167.875" cy="142.865" rx="1.812" ry="1.945"/>
		<ellipse fill="#C9CACA" cx="167.875" cy="147.695" rx="0.75" ry="0.806"/>
		<ellipse fill="#FAEE00" cx="182.875" cy="142.865" rx="1.812" ry="1.945"/>
		<ellipse fill="#C9CACA" cx="182.875" cy="147.695" rx="0.75" ry="0.806"/>
		<ellipse fill="#FAEE00" cx="198" cy="142.865" rx="1.812" ry="1.945"/>
		<ellipse fill="#C9CACA" cx="198" cy="147.695" rx="0.75" ry="0.806"/>
	</g>
	<ellipse fill="#FAEE00" cx="229.333" cy="143.625" rx="2.333" ry="2.416"/>
	<ellipse fill="#FAEE00" cx="229.167" cy="143.625" rx="2.333" ry="2.416"/>
	<ellipse fill="#FAEE00" cx="247.833" cy="143.625" rx="2.333" ry="2.416"/>
	<ellipse fill="#898989" cx="238.5" cy="143.625" rx="2.25" ry="2.416"/>
	<rect x="226.334" y="147.83" fill="#898989" width="5.833" height="1.073"/>
	<rect x="235.5" y="147.83" fill="#898989" width="5.834" height="1.073"/>
	<rect x="244.667" y="147.83" fill="#898989" width="5.833" height="1.073"/>
</g>
</svg>
